<svg width="36" height="36" viewBox="0 0 36 36" fill="none" xmlns="http://www.w3.org/2000/svg">
<g id="wallet">
<path id="Vector" fill-rule="evenodd" clip-rule="evenodd" d="M8.25 3.75C5.3505 3.75 3 6.1005 3 9V28.5C3 30.1569 4.34314 31.5 6 31.5H30C31.6569 31.5 33 30.1569 33 28.5V13.5C33 11.8431 31.6569 10.5 30 10.5V6.75C30 5.09314 28.6569 3.75 27 3.75H8.25ZM6.75 9C6.75 8.17158 7.42158 7.5 8.25 7.5H26.25V10.5H8.25C7.42158 10.5 6.75 9.82843 6.75 9ZM25.875 23.625C27.3247 23.625 28.5 22.4498 28.5 21C28.5 19.5503 27.3247 18.375 25.875 18.375C24.4252 18.375 23.25 19.5503 23.25 21C23.25 22.4498 24.4252 23.625 25.875 23.625Z" fill="white"/>
</g>
</svg>
